<?xml version="1.0" standalone="no"?>
<!DOCTYPE svg PUBLIC "-//W3C//DTD SVG 20010904//EN"
 "http://www.w3.org/TR/2001/REC-SVG-20010904/DTD/svg10.dtd">
<svg version="1.0" xmlns="http://www.w3.org/2000/svg"
 width="700.000000pt" height="700.000000pt" viewBox="0 0 700.000000 700.000000"
 preserveAspectRatio="xMidYMid meet">
<metadata>
Created by potrace 1.11, written by Peter Selinger 2001-2013
</metadata>
<g transform="translate(0.000000,700.000000) scale(0.100000,-0.100000)"
fill="#000000" stroke="none">
<path d="M562 3513 l3 -838 370 0 c417 1 474 7 601 70 91 44 173 130 203 210
96 255 -1 504 -221 569 l-40 12 55 28 c67 32 131 94 161 156 31 61 37 91 37
179 0 184 -96 328 -261 392 -122 48 -156 51 -543 56 l-367 5 2 -839z m757 532
c71 -39 101 -92 101 -179 0 -73 -24 -131 -69 -169 -54 -45 -116 -57 -303 -57
l-168 0 0 221 0 221 193 -4 c192 -3 192 -3 246 -33z m9 -665 c67 -29 107 -75
128 -148 32 -109 -11 -210 -112 -262 -47 -24 -57 -25 -256 -28 l-208 -3 0 237
0 237 198 -5 c177 -5 202 -7 250 -28z"/>
<path d="M5704 4340 c-325 -46 -530 -271 -486 -535 33 -200 165 -311 462 -390
317 -85 377 -111 434 -188 32 -43 29 -129 -6 -188 -65 -111 -245 -164 -418
-123 -118 27 -195 96 -222 197 l-12 47 -144 0 -145 0 6 -53 c27 -222 178 -379
420 -434 111 -25 339 -23 444 5 197 51 320 154 373 313 18 53 21 81 18 164 -4
118 -30 185 -98 259 -88 95 -200 151 -410 205 -249 64 -302 86 -357 143 -93
97 -49 247 90 309 43 19 69 23 152 24 183 0 274 -56 319 -197 5 -16 21 -18
147 -18 l142 0 -6 43 c-27 198 -170 343 -393 401 -74 19 -230 27 -310 16z"/>
<path d="M2220 3445 l0 -115 1265 0 1265 0 0 115 0 115 -1265 0 -1265 0 0
-115z"/>
</g>
</svg>
