<?xml version="1.0" encoding="utf-8"?>
<!-- Generator: Adobe Illustrator 22.1.0, SVG Export Plug-In . SVG Version: 6.00 Build 0)  -->
<svg version="1.1" id="Layer_1" xmlns="http://www.w3.org/2000/svg" xmlns:xlink="http://www.w3.org/1999/xlink" x="0px" y="0px"
	 viewBox="0 0 1306.6 127.9" style="enable-background:new 0 0 1306.6 127.9;" xml:space="preserve">
<style type="text/css">
	.st0{enable-background:new    ;}
	.st1{fill:none;stroke:#000000;stroke-width:12.28;stroke-miterlimit:10;}
</style>
<title>BST-Logo</title>
<g class="st0">
	<path d="M0,98L0.6,0.8L34,1c22.1,0.1,34.4,10,34.3,26.9C68.2,38.8,61.9,45.4,53,48.3c11.5,2.2,17.5,11.3,17.5,22.2
		c-0.1,17.9-12.4,27.9-34.4,27.8L0,98z M37.1,55.9l-18.5-0.1l-0.2,27l17.8,0.1c10.5,0.1,16.2-5.3,16.3-12.7
		C52.5,62,47.4,55.9,37.1,55.9z M18.7,42.3l14.9,0.1c10.7,0.1,16.4-4.6,16.5-12.9s-4.9-12.8-16.2-12.9l-15-0.1L18.7,42.3z"/>
	<path d="M84.2,62.4c0.2-24.3,15.1-37.5,33.2-37.4s32.9,13.5,32.7,37.8c-0.2,23.9-14.7,37.7-33.2,37.6
		C98.2,100.2,84.1,86.3,84.2,62.4z M132.7,62.7c0.1-14.6-5.5-22.9-15.4-22.9c-9.9-0.1-15.6,8.2-15.7,22.7
		c-0.1,14.4,5.3,22.9,15.4,23C127.1,85.5,132.6,77.1,132.7,62.7z"/>
	<path d="M184.1,99.4l-18.2-0.1l0.6-97.4L184.7,2L184.1,99.4z"/>
	<path d="M221,99.7l-18.2-0.1l0.6-97.4l18.2,0.1L221,99.7z"/>
</g>
<g class="st0">
	<path d="M240,10.7c0-5.1,4.6-9.7,10.5-9.6c5.9,0,10.3,4.6,10.3,9.8c0,5.3-4.4,9.7-10.4,9.6C244.4,20.5,240,16.1,240,10.7z
		 M258.9,99.9l-18.2-0.1l0.5-73.1l18.2,0.1L258.9,99.9z"/>
</g>
<g class="st0">
	<path d="M342.1,27.6l-0.5,71.2c-0.1,18.8-14.5,29.3-34.4,29.1c-13.9-0.1-23.9-5.8-28.1-10.7l8.9-11.9c3.9,3.3,9.6,7.5,18.7,7.6
		c10.2,0.1,16.9-4.4,17-15.8v-5.7h-1.1c-2.5,4.9-8.9,8.8-17.9,8.7c-16.7-0.1-29.6-13.4-29.4-37.3c0.2-24.3,13.7-36.9,30-36.8
		c9.1,0.1,15.3,4.1,17.8,9h0.9v-7.7L342.1,27.6z M309.3,85.7c11.5,0.1,16.3-9.8,16.4-22.4c0.1-12.7-4.7-22.4-16.1-22.5
		c-11.1-0.1-16.8,8.7-16.9,22.2C292.5,76.4,298.2,85.6,309.3,85.7z"/>
	<path d="M357.9,65c0.1-22.4,13.6-38.3,34.7-38.2c18.5,0.1,32.6,11.8,32.4,35.4v7.6l-49.6-0.3c1.1,11.1,6.9,17.8,17.5,17.9
		c8.8,0.1,13-4.6,15-10.1l16.2,4.5c-2.7,10-12.8,20.6-31.2,20.4C370.9,102,357.8,87,357.9,65z M376,56.9l31.9,0.2
		c0.1-8.8-5.6-15.4-15.4-15.5C383.8,41.5,378,47.1,376,56.9z"/>
	<path d="M480.2,44.9c-1.1-0.2-3.2-0.3-4.9-0.3c-9.6-0.1-15.9,6.8-16,14.5l-0.3,42.1l-18.2-0.1l0.5-73.1l18.2,0.1l-0.1,10.5h0.6
		c2.1-7.4,9.1-11.4,16.1-11.4c1.3,0,3,0.1,4.2,0.4L480.2,44.9z"/>
</g>
<g class="st0">
	<path d="M866.1,15.7C856,15.6,849,20.3,849,27.2c0,6.7,7.1,10,18.4,13.8l5.2,1.7c18.3,6.1,28.4,14.1,28.4,29
		c-0.1,17.1-13.6,28.7-35.9,28.6c-19.6-0.1-36.7-10.5-37-31.3l18.1,0.1c0.6,10.1,8.4,15.5,19.4,15.5c12,0.1,17.5-6.1,17.5-12.8
		c0-6.9-5.5-10.9-19.8-15.4l-5.4-1.6C842.1,50,831,41.1,831.1,27.1c0.1-16.4,15.2-27.3,35.3-27.1c20.2,0.1,34.1,11.7,34.3,29.1
		L883.1,29C882.2,20.7,876.4,15.7,866.1,15.7z"/>
	<path d="M953.7,39.8l-12.9-0.1l-0.2,37.2c0,7.3,5.2,8.2,8.4,8.2c2.1,0,3.7,0,5.1-0.1L954,99.5c-4.5,0.8-6.6,0.8-10.4,0.8
		c-10.4-0.1-21.3-7.8-21.2-20.7l0.3-40l-9.2-0.1l0.1-13.6l9.2,0.1l0.1-15.6l18.2,0.1L941,26.1l12.9,0.1L953.7,39.8z"/>
	<path d="M1014.3,26.6l18.2,0.1l-0.5,73.1l-17.1-0.1l0.1-8.7h-0.8c-4,5.3-11,9.5-20.4,9.5c-11.7-0.1-24.2-7.8-24-28.2l0.3-45.9
		l18.2,0.1L988,71.9c-0.1,8.8,5.2,13.6,12.3,13.6c8.3,0.1,13.7-6.8,13.8-18.2L1014.3,26.6z"/>
	<path d="M1096.5,100.2v-7.7h-0.9c-2.5,5-8.9,8.9-17.9,8.9c-16.7-0.1-29.6-13.6-29.4-38c0.2-24.6,13.8-37.4,30-37.3
		c9.1,0.1,15.3,4.2,17.8,9.2h0.8l0.2-32.4l18.2,0.1l-0.6,97.4L1096.5,100.2z M1082.2,86.6c11.5,0.1,16.3-9.9,16.4-22.9
		c0.1-12.9-4.7-22.8-16.1-22.8c-11.1-0.1-16.8,8.9-16.9,22.6C1065.5,77.3,1071.2,86.6,1082.2,86.6z"/>
</g>
<g class="st0">
	<path d="M1133.6,11.4c0-5.1,4.6-9.7,10.5-9.6c5.9,0,10.3,4.6,10.3,9.8c0,5.3-4.4,9.7-10.4,9.6C1138,21.2,1133.5,16.8,1133.6,11.4z
		 M1152.5,100.6l-18.2-0.1l0.5-73.1l18.2,0.1L1152.5,100.6z"/>
</g>
<g class="st0">
	<path d="M1168.9,64.3c0.2-24.3,15.1-37.5,33.2-37.4s32.9,13.5,32.7,37.8c-0.2,23.9-14.7,37.7-33.2,37.6
		C1182.9,102.2,1168.8,88.2,1168.9,64.3z M1217.4,64.6c0.1-14.6-5.5-22.9-15.4-22.9c-9.9-0.1-15.6,8.2-15.7,22.7
		c-0.1,14.4,5.3,22.9,15.4,23S1217.3,79,1217.4,64.6z"/>
	<path d="M1278.7,27.4c15.1,0.1,25.8,8.5,28.2,20.8l-16.1,2.7c-1.2-4-4-8.6-11-9.1c-6.1-0.4-11.3,2.5-11.3,7c0,4.2,4.3,5.9,11.3,8
		l6.5,1.8c14.1,4.3,20.4,13.3,20.3,22.5c-0.1,12.1-10.9,21.7-28.5,21.6c-17.3-0.1-28.4-9.4-31.1-22.1l16.6-3.2
		c1.8,5,5.3,9.8,13.5,10.2c6.8,0.3,11.7-2.6,11.7-7.1c0-4.1-5.1-6.5-13.1-9.1l-7.2-2.1c-13.3-4.2-18.6-12.7-18.6-20.9
		C1249.9,35.7,1263.4,27.3,1278.7,27.4z"/>
</g>
<line class="st1" x1="525.8" y1="63.3" x2="770" y2="63.3"/>
</svg>
